<?xml version="1.0" encoding="utf-8"?>
<!-- Generator: Adobe Illustrator 27.2.0, SVG Export Plug-In . SVG Version: 6.00 Build 0)  -->
<svg version="1.1" id="Layer_1" xmlns="http://www.w3.org/2000/svg" xmlns:xlink="http://www.w3.org/1999/xlink" x="0px" y="0px"
	 width="103.4px" height="53.6px" viewBox="0 0 103.4 53.6" style="enable-background:new 0 0 103.4 53.6;" xml:space="preserve">
<style type="text/css">
	.st0{clip-path:url(#SVGID_00000108287120362864572880000008774733544779109257_);}
	.st1{fill:#8CC749;}
	.st2{fill:#312768;}
	.st3{fill:#FFFFFF;}
</style>
<g>
	<defs>
		<rect id="SVGID_1_" x="0.2" y="0.5" width="103" height="53"/>
	</defs>
	<clipPath id="SVGID_00000099655645114423010740000014377858771989889968_">
		<use xlink:href="#SVGID_1_"  style="overflow:visible;"/>
	</clipPath>
	<g style="clip-path:url(#SVGID_00000099655645114423010740000014377858771989889968_);">
		<path class="st1" d="M73.7,32.1l13.4-3.9l13.1,3.9H73.7z"/>
		<path class="st2" d="M88,0.5c1.5,0.1,2.9,0.3,4,0.6c1.2,0.3,2.2,0.7,3,1.1s1.6,0.9,2.1,1.5c0.6,0.5,1.1,1.1,1.5,1.7
			c0.9,1.3,1.4,2.8,1.5,4.4v13.1c-0.1,1.6-0.7,3.1-1.5,4.4c-0.4,0.6-0.9,1.1-1.5,1.7c-0.6,0.6-1.3,1.1-2.1,1.5
			c-0.8,0.4-1.8,0.8-3,1.1c-1.2,0.3-2.5,0.5-4,0.6h-2.6c-1.5-0.1-2.8-0.3-3.9-0.6c-1.1-0.3-2.1-0.7-2.9-1.2c-0.8-0.5-1.5-1-2.1-1.5
			c-0.6-0.5-1-1.1-1.4-1.7c-0.9-1.3-1.3-2.8-1.5-4.4V9.7c0.1-1.6,0.6-3,1.5-4.4c0.4-0.6,0.8-1.1,1.4-1.7c0.6-0.5,1.3-1,2.1-1.5
			c0.8-0.4,1.8-0.8,2.9-1.1c1.1-0.3,2.4-0.5,3.9-0.6L88,0.5L88,0.5z"/>
		<path class="st3" d="M87.9,4.9c1.3,0.1,2.4,0.2,3.4,0.5c1,0.3,1.8,0.6,2.6,0.9c0.7,0.4,1.3,0.8,1.8,1.3C96.2,8,96.6,8.5,96.9,9
			c0.8,1.1,1.2,2.4,1.3,3.7v11.1c-0.1,1.4-0.6,2.6-1.3,3.8c-0.3,0.5-0.7,1-1.2,1.4c-0.5,0.5-1.1,0.9-1.8,1.3
			c-0.7,0.4-1.6,0.7-2.6,0.9c-1,0.3-2.1,0.4-3.4,0.5h-2.2c-1.3-0.1-2.3-0.2-3.3-0.5c-0.9-0.3-1.8-0.6-2.5-1s-1.3-0.8-1.8-1.3
			c-0.5-0.5-0.9-0.9-1.2-1.4c-0.7-1.1-1.1-2.4-1.2-3.7V12.7c0.1-1.4,0.5-2.6,1.2-3.7c0.3-0.5,0.7-0.9,1.2-1.4
			c0.5-0.5,1.1-0.9,1.8-1.3c0.7-0.4,1.5-0.7,2.5-0.9c0.9-0.3,2-0.4,3.3-0.5H87.9z"/>
		<path class="st2" d="M70.6,21.6l3.5-9.9v6.4L70.6,21.6z"/>
		<path class="st2" d="M103.2,21.6l-3.5-9.9v6.4L103.2,21.6z"/>
		<path class="st1" d="M86.9,6.1l-3.1,3.1l3.1,3.1L90,9.3L86.9,6.1z"/>
		<path class="st2" d="M83,8.2c0.6,0,1-0.5,1-1.1s-0.5-1.1-1-1.1c-0.6,0-1,0.5-1,1.1S82.5,8.2,83,8.2z"/>
		<path class="st2" d="M90.9,8.2c0.6,0,1-0.5,1-1.1s-0.5-1.1-1-1.1c-0.6,0-1,0.5-1,1.1S90.3,8.2,90.9,8.2z"/>
		<path class="st2" d="M0.2,15.5h3.5v13h4.9v3.6H0.2V15.5z"/>
		<path class="st2" d="M10.1,23.8c0-2.5,0.8-4.5,2.4-6.1c1.6-1.6,3.5-2.4,5.7-2.4c2.4,0,4.5,0.8,6.1,2.4c1.6,1.6,2.4,3.6,2.4,6.1
			s-0.8,4.5-2.4,6.1s-3.6,2.4-6,2.4c-2.4,0-4.4-0.8-5.9-2.4C10.8,28.3,10.1,26.3,10.1,23.8z M18.4,18.7c-1.4,0-2.5,0.5-3.3,1.4
			c-0.8,1-1.3,2.3-1.3,3.8c0,1.5,0.4,2.7,1.3,3.7c0.9,1,1.9,1.5,3.3,1.5c1.4,0,2.5-0.5,3.3-1.4c0.8-1,1.3-2.2,1.3-3.8
			c0-1.6-0.4-2.8-1.3-3.7C20.8,19.2,19.7,18.7,18.4,18.7L18.4,18.7z"/>
		<path class="st2" d="M41.4,16.4v4c-1.8-1.1-3.3-1.6-4.7-1.6c-1.3,0-2.4,0.5-3.2,1.4c-0.8,0.9-1.2,2.2-1.2,3.7
			c0,1.5,0.4,2.7,1.3,3.6c0.8,0.9,2,1.3,3.4,1.3c1.2,0,2.7-0.5,4.4-1.5v4c-1.9,0.6-3.5,1-4.8,1c-2.2,0-4.1-0.8-5.7-2.5
			c-1.5-1.6-2.3-3.6-2.3-6c0-2.4,0.8-4.4,2.4-6.1c1.6-1.7,3.5-2.5,5.8-2.5C38.2,15.3,39.7,15.7,41.4,16.4L41.4,16.4z"/>
		<path class="st2" d="M49.1,15.5h2.8l6.7,16.6H55l-1.3-3.3h-6.3l-1.3,3.3h-3.6L49.1,15.5z M50.5,21l-1.9,4.9h3.9L50.5,21z"/>
		<path class="st2" d="M60.6,15.5h3.5v13H69v3.6h-8.4V15.5z"/>
		<path class="st2" d="M13,37.6v4C11.3,40.5,9.7,40,8.4,40c-1.3,0-2.4,0.5-3.2,1.4c-0.8,0.9-1.2,2.2-1.2,3.7c0,1.5,0.4,2.7,1.3,3.6
			c0.8,0.9,2,1.3,3.4,1.3c1.2,0,2.7-0.5,4.4-1.5v4c-1.9,0.6-3.5,1-4.8,1c-2.2,0-4.1-0.8-5.7-2.5c-1.5-1.6-2.3-3.6-2.3-6
			c0-2.4,0.8-4.4,2.4-6.1c1.6-1.7,3.5-2.5,5.8-2.5C9.8,36.5,11.4,36.8,13,37.6L13,37.6z"/>
		<path class="st2" d="M14.6,45c0-2.5,0.8-4.5,2.4-6.1c1.6-1.6,3.5-2.4,5.7-2.4c2.4,0,4.5,0.8,6.1,2.4c1.6,1.6,2.4,3.6,2.4,6.1
			c0,2.5-0.8,4.5-2.4,6.1c-1.6,1.6-3.6,2.4-6,2.4c-2.4,0-4.4-0.8-5.9-2.4C15.4,49.5,14.6,47.4,14.6,45z M22.9,39.8
			c-1.4,0-2.5,0.5-3.3,1.4c-0.8,1-1.3,2.3-1.3,3.8c0,1.5,0.4,2.7,1.3,3.7c0.9,1,1.9,1.5,3.3,1.5c1.4,0,2.5-0.5,3.3-1.4
			c0.8-1,1.3-2.2,1.3-3.8c0-1.6-0.4-2.8-1.3-3.7C25.4,40.3,24.3,39.9,22.9,39.8L22.9,39.8z"/>
		<path class="st2" d="M44.6,36.7H48v16.6h-3.5L37,42.5v10.7h-3.6V36.7H37l7.6,10.7V36.7z"/>
		<path class="st2" d="M63,37.6v4c-1.8-1.1-3.3-1.6-4.7-1.6c-1.3,0-2.4,0.5-3.2,1.4c-0.8,0.9-1.2,2.2-1.2,3.7c0,1.5,0.4,2.7,1.3,3.6
			c0.8,0.9,2,1.3,3.4,1.3c1.2,0,2.7-0.5,4.4-1.5v4c-1.9,0.6-3.5,1-4.8,1c-2.2,0-4.1-0.8-5.7-2.5c-1.5-1.6-2.3-3.6-2.3-6
			c0-2.4,0.8-4.4,2.4-6.1c1.6-1.7,3.5-2.5,5.8-2.5C59.7,36.5,61.3,36.8,63,37.6L63,37.6z"/>
		<path class="st2" d="M65.1,36.7h9.3V40h-5.7v3.4h5.7v3.2h-5.7V50h5.7v3.3h-9.3V36.7z"/>
		<path class="st2" d="M77,36.7h5.6c1.5,0,2.7,0.4,3.7,1.3c0.9,0.9,1.4,2.1,1.4,3.5c0,1-0.2,1.9-0.7,2.7c-0.5,0.9-1.1,1.5-2.1,1.9
			c-0.9,0.4-1.7,0.6-2.4,0.7l-2.1,0.1v6.4H77V36.7L77,36.7z M80.4,39.7v4.2h1.4c0.6,0,1.1-0.2,1.5-0.6c0.4-0.4,0.6-0.9,0.6-1.5
			c0-0.7-0.2-1.2-0.7-1.6c-0.5-0.4-1.2-0.6-2-0.6L80.4,39.7L80.4,39.7z"/>
		<path class="st2" d="M88.8,36.7h11.1v3.5h-3.8v13.1h-3.6V40.2h-3.8V36.7z"/>
	</g>
</g>
</svg>
