<?xml version="1.0" encoding="UTF-8" standalone="no"?>
<svg
   xmlns:dc="http://purl.org/dc/elements/1.1/"
   xmlns:cc="http://creativecommons.org/ns#"
   xmlns:rdf="http://www.w3.org/1999/02/22-rdf-syntax-ns#"
   xmlns:svg="http://www.w3.org/2000/svg"
   xmlns="http://www.w3.org/2000/svg"
   xmlns:sodipodi="http://sodipodi.sourceforge.net/DTD/sodipodi-0.dtd"
   xmlns:inkscape="http://www.inkscape.org/namespaces/inkscape"
   width="30mm"
   height="26.998453mm"
   viewBox="0 0 30 26.998453"
   version="1.1"
   id="svg34"
   inkscape:version="1.0 (4035a4fb49, 2020-05-01)"
   sodipodi:docname="logo.svg">
  <defs
     id="defs28" />
  <sodipodi:namedview
     id="base"
     pagecolor="#ffffff"
     bordercolor="#666666"
     borderopacity="1.0"
     inkscape:pageopacity="0.0"
     inkscape:pageshadow="2"
     inkscape:zoom="5.6568545"
     inkscape:cx="38.887053"
     inkscape:cy="39.21163"
     inkscape:document-units="mm"
     inkscape:current-layer="layer1"
     inkscape:document-rotation="0"
     showgrid="false"
     showguides="true"
     inkscape:guide-bbox="true"
     inkscape:window-width="1920"
     inkscape:window-height="1017"
     inkscape:window-x="-8"
     inkscape:window-y="-8"
     inkscape:window-maximized="1"
     guidetolerance="20"
     gridtolerance="10"
     fit-margin-top="0"
     fit-margin-left="0"
     fit-margin-right="0"
     fit-margin-bottom="0">
    <sodipodi:guide
       position="16.559158,-37.718353"
       orientation="-1,0"
       id="guide106"
       inkscape:label=""
       inkscape:locked="false"
       inkscape:color="rgb(0,0,255)" />
    <sodipodi:guide
       position="32.569574,7.6608073"
       orientation="0,1"
       id="guide108"
       inkscape:label=""
       inkscape:locked="false"
       inkscape:color="rgb(0,0,255)" />
    <sodipodi:guide
       position="16.559157,7.6608173"
       orientation="0,-1"
       id="guide118" />
    <sodipodi:guide
       position="16.559157,7.6608173"
       orientation="0,-1"
       id="guide120" />
    <sodipodi:guide
       position="16.559157,7.6608173"
       orientation="0,-1"
       id="guide122" />
    <sodipodi:guide
       position="16.559157,7.6608173"
       orientation="0,-1"
       id="guide124" />
    <sodipodi:guide
       position="16.559157,7.6608273"
       orientation="0,-1"
       id="guide126" />
    <sodipodi:guide
       position="16.559157,7.6608173"
       orientation="0,-1"
       id="guide128" />
    <sodipodi:guide
       position="32.569573,7.6608173"
       orientation="0,-1"
       id="guide130" />
    <sodipodi:guide
       position="16.559157,7.6608173"
       orientation="0,-1"
       id="guide132" />
    <sodipodi:guide
       position="16.559157,7.6608173"
       orientation="0,-1"
       id="guide134" />
    <sodipodi:guide
       position="50.825823,-18.139183"
       orientation="0,-1"
       id="guide136" />
    <sodipodi:guide
       position="29.659157,-5.2391929"
       orientation="0,1"
       id="guide138"
       inkscape:label=""
       inkscape:locked="false"
       inkscape:color="rgb(0,0,255)" />
    <sodipodi:guide
       position="33.115278,-5.2391929"
       orientation="1,0"
       id="guide140" />
    <sodipodi:guide
       position="54.728427,-44317.339"
       orientation="0,1"
       id="guide142"
       inkscape:label=""
       inkscape:locked="false"
       inkscape:color="rgb(0,0,255)" />
    <sodipodi:guide
       position="55.985198,-44317.339"
       orientation="0,1"
       id="guide144"
       inkscape:label=""
       inkscape:locked="false"
       inkscape:color="rgb(0,0,255)" />
    <sodipodi:guide
       position="63.062802,-11.689193"
       orientation="0,1"
       id="guide146"
       inkscape:label=""
       inkscape:locked="false"
       inkscape:color="rgb(0,0,255)" />
  </sodipodi:namedview>
  <metadata
     id="metadata31">
    <rdf:RDF>
      <cc:Work
         rdf:about="">
        <dc:format>image/svg+xml</dc:format>
        <dc:type
           rdf:resource="http://purl.org/dc/dcmitype/StillImage" />
        <dc:title></dc:title>
      </cc:Work>
    </rdf:RDF>
  </metadata>
  <g
     inkscape:label="Capa 1"
     inkscape:groupmode="layer"
     id="layer1"
     transform="translate(-8.4408421,-5.6623547)">
    <g
       transform="rotate(180,23.440842,19.161583)"
       id="g95">
      <g
         aria-label="a"
         id="text112"
         style="font-style:normal;font-variant:normal;font-weight:normal;font-stretch:normal;font-size:35.9686px;line-height:1.25;font-family:'Bauhaus 93';-inkscape-font-specification:'Bauhaus 93, ';fill:#333333;fill-opacity:1;stroke:none;stroke-width:0.187336">
        <path
           d="m 19.136583,16.955235 v 6.796801 c -0.538592,0.09367 -1.03035,0.140502 -1.475274,0.140502 -2.634419,0 -4.829769,-0.866431 -6.586048,-2.599293 -1.7562793,-1.732862 -2.634419,-3.904794 -2.634419,-6.515796 0,-2.540751 0.883994,-4.695121 2.651982,-6.4631084 1.779696,-1.7679879 3.93992,-2.6519819 6.480671,-2.6519819 2.833464,0 5.063939,0.8313056 6.691424,2.4939167 1.639194,1.6509024 2.458791,3.9106486 2.458791,6.7792386 l 0.0027,4.418729 -6.561007,7e-6 -0.01022,-3.944541 c -0.0024,-0.924971 -0.228316,-1.662611 -0.684949,-2.212912 -0.444924,-0.550301 -1.047913,-0.825451 -1.808967,-0.825451 -0.690803,0 -1.287938,0.251733 -1.791405,0.7552 -0.503467,0.503467 -0.7552,1.100602 -0.7552,1.791405 0,0.725929 0.228316,1.323064 0.684949,1.791405 0.456632,0.468341 1.036204,0.702512 1.738716,0.702512 0.573718,0 1.106456,-0.152211 1.598214,-0.456633 z"
           style="font-style:normal;font-variant:normal;font-weight:normal;font-stretch:normal;font-size:35.9686px;font-family:'Bauhaus 93';-inkscape-font-specification:'Bauhaus 93, ';fill:#333333;stroke-width:0.187336"
           id="path88"
           sodipodi:nodetypes="ccssscscsccscsssssc" />
      </g>
      <g
         style="font-style:normal;font-variant:normal;font-weight:normal;font-stretch:normal;font-size:50.8px;line-height:1.25;font-family:'Bauhaus 93';-inkscape-font-specification:'Bauhaus 93, ';fill:#ffcc00;fill-opacity:1;stroke:none;stroke-width:0.264583"
         id="text116"
         transform="matrix(-0.70804352,0,0,-0.70804352,-8.7289254,-12.047488)"
         aria-label="a">
        <path
           sodipodi:nodetypes="ccssscscsccscssssscc"
           id="path176"
           style="font-style:normal;font-variant:normal;font-weight:normal;font-stretch:normal;font-size:50.8px;font-family:'Bauhaus 93';-inkscape-font-specification:'Bauhaus 93, ';fill:#ffcc00;stroke-width:0.264583"
           d="m -51.513815,-47.194014 v 9.599414 c -0.760677,0.132292 -1.455209,0.198438 -2.083594,0.198438 -3.720703,0 -6.821289,-1.223698 -9.301758,-3.671094 -2.480469,-2.447396 -3.720703,-5.514909 -3.720703,-9.202539 0,-3.588411 1.248503,-6.63112 3.745508,-9.128125 2.513541,-2.497005 5.564518,-3.745508 9.152929,-3.745508 4.001823,0 7.152019,1.174089 9.450586,3.522266 2.315104,2.331641 3.472656,5.523177 3.472656,9.574609 l -0.01056,5.696542 -9.266389,1e-5 v -5.026825 c 0,-1.306381 -0.322461,-2.348178 -0.967382,-3.125391 -0.628385,-0.777213 -1.480013,-1.16582 -2.554883,-1.16582 -0.975651,0 -1.819011,0.355534 -2.530078,1.066601 -0.711068,0.711068 -1.066602,1.554427 -1.066602,2.530078 0,1.025261 0.322461,1.86862 0.967383,2.530079 0.644922,0.661458 1.463477,0.992187 2.455664,0.992187 0.810287,0 1.562696,-0.214974 2.257227,-0.644922 z" />
      </g>
    </g>
  </g>
</svg>
